<?xml version="1.0" encoding="UTF-8"?>
<svg id="Layer_1" data-name="Layer 1" xmlns="http://www.w3.org/2000/svg" viewBox="0 0 1157.895543282938888 118.265941625859341">
  <defs>
    <style>
      .cls-1 {
        fill: #fff;
        stroke-width: 0px;
      }
    </style>
  </defs>
  <path class="cls-1" d="M326.896747851598775,13.964006335170779l-.000000007021299,104.298053130149128,26.073749814131588.000000001149601.000000001189619-26.073749814089751,6.977385636510007.000000000300133c9.017637364398979,15.585948956810171,25.869197185169469,26.073749815261181,45.170113990578102,26.073749816139753,28.801784005001537.000000001311491,52.14749962928181-23.348274869509623,52.147499630562379-52.147499625878481.000000001320586-28.801846425760232-23.345715620882402-52.147530839691171-52.147499625902128-52.14753084097174-19.300916805379529-.000000000858563-36.155035875766771,10.487800856080867-45.172673241548182,26.073749812110691l-6.974826387860958-.000000000329237.000000003499736-26.076772477441409-26.073749814138864-.000000001138687ZM379.044247475179873,66.11455983939959c.000000000658474-14.40220283716917,11.674106226757431-26.073781023958873,26.073749815299379-26.073781023289484,14.399643588520121.000000000620275,26.073749813589529,11.671578188459534,26.073749812967435,26.073781025630524-.000000000669388,14.399612378188976-11.674106226757431,26.073749813600443-26.073749815306655,26.07374981294015-14.399643588552863-.000000000640284-26.073749813611357-11.674137437081299-26.073749812960159-26.07374981528119Z"/>
  <path class="cls-1" d="M909.257564673178422,69.602004244859927c.076699432829628-1.153097556480134.115041346649377-2.316432107460059.115041346649377-3.487444404279813,0-1.171012296850677-.03834191381975-2.334284427119201-.115041346649377-3.487381983619343-1.79484475389836-27.173165570189667-24.404199006541603-48.660117644660204-52.032458281581057-48.660117644660204-28.79925596675821,0-52.147515233449667,23.348274871868853-52.147515233449667,52.147499628279547,0,28.8018464257093,23.348259266691457,52.14749962823953,52.147515233449667,52.14749962823953,25.217244204781309,0,46.254189861250779-17.897262566619247,51.09923763423285-41.685291256790151h-27.211507484011236c-4.029443326111505,9.191572640431332-13.208172907900007,15.611541442651287-23.887730150221614,15.611541442651287-13.215850653759844,0-24.138302437717357-9.83325741715089-25.841092267059139-22.586305409820852h77.873550548640196ZM831.384014124538226,62.62717785696077c1.702789829341782-12.750551164750505,12.625241613299295-22.58636783052134,25.841092267059139-22.58636783052134,13.215850653752568,0,24.138286832490849,9.835816665770835,25.841092267000931,22.58636783052134h-51.68218453406007Z"/>
  <path class="cls-1" d="M693.794036370218237,13.967029001969422v26.073765419321717h-6.977354426140664c-10.913321591760905-18.862374698681379-33.300327717657638-30.257869885450418-57.616891954119637-24.633313796670336-19.133585476720327,4.425704373639746-34.089327455971215,19.536950457530111-38.361934565920819,38.705304087459808-7.584350766090211,34.025950385359465,18.092139799500728,64.149274756739032,50.808681317950686,64.149274756739032,19.300916805350425,0,36.15247662665206-10.485241609079822,45.17014520208977-26.073765419319898h6.977354426140664v26.073765419319898h26.073781024471828V13.967029001969422h-26.073781024471828ZM641.87451372644864,92.187319462109372c-14.576421649260737.124584677061648-26.41919856387176-11.711703969838709-26.300847254951805-26.289347631478449.114939232000324-14.15736912506145,11.680691251851385-25.731446277590294,25.837977799510554-25.856142622471452,14.583519477320806-.128450573409282,26.432464010609692,11.718267090351219,26.307665134780109,26.30093625283007-.12114324130016,14.155510594409861-11.689283750059985,25.723566839449632-25.844795679338858,25.844554001119832Z"/>
  <path class="cls-1" d="M1131.821762258488889,13.967029001969422v26.073765419321717h-6.977354426169768c-10.913321591739077-18.862374698681379-33.300327717650362-30.257869885450418-57.61689195407962-24.633313796670336-19.133585476742155,4.425704373639746-34.089327456011233,19.536950457530111-38.361934565931733,38.705304087459808-7.584350766097486,34.025950385359465,18.092139799518918,64.149274756739032,50.808681317921582,64.149274756739032,19.300916805379529,0,36.152476626648422-10.485241609079822,45.17014520208977-26.073765419319898h6.977354426169768v26.073765419319898h26.07378102445V13.967029001969422h-26.07378102445ZM1079.902239614690188,92.187319462109372c-14.57642164922072.124584677061648-26.419198563820828-11.711703969838709-26.300847254940891-26.289347631478449.11493923198941-14.15736912506145,11.680691251869575-25.731446277590294,25.83797779951783-25.856142622471452,14.583519477291702-.128450573409282,26.432464010602416,11.718267090351219,26.307665134751005,26.30093625283007-.121143241260143,14.155510594409861-11.689283750049071,25.723566839449632-25.844795679327945,25.844554001119832Z"/>
  <path class="cls-1" d="M968.507205290687125,92.188309654680779c-14.399627983377286,0-26.073749814117036-11.674168646270118-26.073749814117036-26.073749814100665,0-14.399643588549225,11.67412183073975-26.073749814140683,26.073749814117036-26.073749814140683,13.215835048591543,0,24.138302437670063,9.835816665770835,25.841107872151042,22.586305409831766h26.191350409430015c-1.79484475389836-27.173103149500093-24.404183401351474-48.66005522397063-52.032458281581057-48.66005522397063-28.801799610198941,0-52.147499628299556,23.348212451190193-52.147499628299556,52.147499628279547,0,28.801784005010632,23.345700018100615,52.14749962823953,52.147499628299556,52.14749962823953,27.628274880229583,0,50.237613527682697-21.484392825848772,52.032458281581057-48.660117644669299h-26.191350409430015c-1.702805434480979,12.750551164750505-12.625272823559499,22.586367830530435-25.841107872151042,22.586367830530435Z"/>
  <path class="cls-1" d="M267.762148573758168,13.964006335949307c-28.801846425700205,0-52.147562048929103,23.348243661501328-52.147562048929103,52.147499628261357,0,28.799255966729106,23.345715623228898,52.14749962823953,52.147562048929103,52.14749962823953,28.799224756399781,0,52.147499628281366-23.348243661510423,52.147499628281366-52.14749962823953,0-28.799255966760029-23.348274871881586-52.147499628261357-52.147499628281366-52.147499628261357ZM267.762148573758168,92.185255778349529c-14.399643588560139,0-26.073812234830257-11.674106225598734-26.073812234830257-26.073749814138864,0-14.399643588560139,11.674168646270118-26.073749814120674,26.073812234830257-26.073749814120674,14.399581167868746,0,26.073749814120674,11.674106225560536,26.073749814120674,26.073749814120674,0,14.39964358854013-11.674168646251928,26.073749814138864-26.073749814120674,26.073749814138864Z"/>
  <path class="cls-1" d="M208.627487459878466,67.128981463420132l-.000000577630999,51.134629852760554h-26.072631105940673l.000011154472304-51.451196110640012c.000002792799933-12.882160525950894-9.048289414880855-24.393953534170578-21.768938342669571-26.427460522600086-16.306621850380907-2.606756123710511-30.376191917221149,9.92103543921985-30.376191917221149,25.727813270839761v52.150843362400337h-26.11942690684009l.000012606691598-51.450606942769809c.000003155579179-12.878642098250566-9.04311248419981-24.38833081419034-21.759519547889795-26.426078022830552-16.304690906930773-2.612753603831152-30.382661642903258,9.908863209129777-30.385664425280993,25.72429352817926l-.001522749811556.001534917109893-26.071056095050153.000013157910871v52.150843362400337H0V13.967648848360113h26.07248799946683c.000039354272303,0,.000071553240559.000071553240559.000071553240559.000071553240559v26.072487999459554l6.974840015860536-.000006618849511.003060318798816-.001766924100593c8.56174677152012-14.803276855389413,24.187833993550157-24.997702108130397,42.265736005891085-25.994653391700922,16.63533480939077-.908439585278757,31.758392473671847,6.142986395281696,41.92825055924186,17.725734213930991,10.972169499029405-12.53389385688024,27.850093330067466-19.757081584519256,46.301943621907412-17.337626060259936,26.047343003170681,3.415396663489446,45.081097682250402,26.426785185609333,45.081097385471367,52.697091843339877Z"/>
  <rect class="cls-1" x="464.252596560127131" y="13.966992976620531" width="26.073805431882647" height="104.294999256509982"/>
  <rect class="cls-1" x="556.438132252158539" y="13.966992976620531" width="26.073805431831715" height="104.294999256509982"/>
  <polygon class="cls-1" points="805.077591158147698 13.958322876209422 805.077591158147698 40.04326750501059 779.025004811948747 40.04326750501059 779.025004811948747 118.265941625859341 752.972418465738883 118.265941625859341 752.972418465738883 40.04326750501059 726.854917037289852 40.04326750501059 726.854917037289852 13.958322876209422 805.077591158147698 13.958322876209422"/>
  <polygon class="cls-1" points="549.451032609569666 92.180996997059992 549.451032609569666 118.265941625859341 497.313501634598651 118.265941625859341 497.313501634598651 13.958322876209422 523.365889463708299 13.958322876209422 523.365889463708299 92.180996997059992 549.451032609569666 92.180996997059992"/>
  <rect class="cls-1" x="464.252608763839817" width="26.073781024428172" height="6.974826387870053"/>
</svg>